<mxfile host="app.diagrams.net" modified="2024-04-20T04:46:31.833Z" agent="Mozilla/5.0 (Windows NT 10.0; Win64; x64) AppleWebKit/537.36 (KHTML, like Gecko) Chrome/124.0.0.0 Safari/537.36" version="24.2.5" etag="oJDX6K5n2rVtJHC3I-4T" type="github">
  <diagram name="第 1 页" id="XAOOGyvy6105oQRRH5As">
    <mxGraphModel>
      <root>
        <mxCell id="0" />
        <mxCell id="1" parent="0" />
      </root>
    </mxGraphModel>
  </diagram>
</mxfile>
